<svg xmlns="http://www.w3.org/2000/svg" style="display: none">
	<!--!Font Awesome Free v7.1.0 by @fontawesome - https://fontawesome.com License - https://fontawesome.com/license/free Copyright 2025 Fonticons, Inc.-->

	<!-- PENCIL -->
	<symbol id="fa-pencil" viewBox="0 0 24 24">
		<g transform="translate(15 14) scale(0.0375) translate(-320 -320)">
			<path
				d="M36.4 353.2c4.1-14.6 11.8-27.9 22.6-38.7l181.2-181.2 33.9-33.9c16.6 16.6 51.3 51.3 104 104l33.9 33.9-33.9 33.9-181.2 181.2c-10.7 10.7-24.1 18.5-38.7 22.6L30.4 510.6c-8.3 2.3-17.3 0-23.4-6.2S-1.4 489.3 .9 481L36.4 353.2zm55.6-3.7c-4.4 4.7-7.6 10.4-9.3 16.6l-24.1 86.9 86.9-24.1c6.4-1.8 12.2-5.1 17-9.7L91.9 349.5zm354-146.1c-16.6-16.6-51.3-51.3-104-104L308 65.5C334.5 39 349.4 24.1 352.9 20.6 366.4 7 384.8-.6 404-.6S441.6 7 455.1 20.6l35.7 35.7C504.4 69.9 512 88.3 512 107.4s-7.6 37.6-21.2 51.1c-3.5 3.5-18.4 18.4-44.9 44.9z"
			/>
		</g>
	</symbol>

	<!-- ERASER -->
	<symbol id="fa-eraser" viewBox="0 0 640 640">
		<path
			d="M210.5 480L333.5 480L398.8 414.7L225.3 241.2L98.6 367.9L210.6 479.9zM256 544L210.5 544C193.5 544 177.2 537.3 165.2 525.3L49 409C38.1 398.1 32 383.4 32 368C32 352.6 38.1 337.9 49 327L295 81C305.9 70.1 320.6 64 336 64C351.4 64 366.1 70.1 377 81L559 263C569.9 273.9 576 288.6 576 304C576 319.4 569.9 334.1 559 345L424 480L544 480C561.7 480 576 494.3 576 512C576 529.7 561.7 544 544 544L256 544z"
		/>
	</symbol>

	<!-- HIGHLIGHTER -->
	<symbol id="fa-highlighter" viewBox="0 0 640 640">
		<path
			d="M347 379L505.4 163.9L476.1 134.6L261 293L347 379zM160 384L160 384L160 312.3C160 297 167.2 282.7 179.5 273.7L452.6 72.4C460 66.9 469 64 478.2 64C489.6 64 500.5 68.5 508.6 76.6L563.4 131.4C571.5 139.5 576 150.4 576 161.9C576 171.1 573.1 180.1 567.6 187.5L366.4 460.5C357.4 472.8 343 480 327.8 480L256.1 480L230.7 505.4C218.2 517.9 197.9 517.9 185.4 505.4L134.7 454.7C122.2 442.2 122.2 421.9 134.7 409.4L160 384zM39 530.3L90.7 478.6L161.3 549.2L141.6 568.9C137.1 573.4 131 575.9 124.6 575.9L56 576C42.7 576 32 565.3 32 552L32 547.3C32 540.9 34.5 534.8 39 530.3z"
		/>
	</symbol>

	<!-- LINE -->
	<symbol id="fa-line" viewBox="0 0 24 24">
		<line
			x1="4"
			y1="20"
			x2="20"
			y2="4"
			stroke="currentColor"
			stroke-width="2"
			stroke-linecap="round"
		/>
	</symbol>

	<!-- POLYLINE -->
	<symbol id="fa-polyline" viewBox="0 0 24 24">
		<polyline
			points="2,18 8,6 14,12 20,6"
			fill="none"
			stroke="currentColor"
			stroke-width="2"
			stroke-linecap="round"
			stroke-linejoin="round"
		/>
	</symbol>

	<!-- RECTANGLE -->
	<symbol id="fa-rect" viewBox="0 0 24 24">
		<rect
			x="4"
			y="4"
			width="16"
			height="16"
			rx="1"
			fill="none"
			stroke="currentColor"
			stroke-width="2"
		/>
	</symbol>

	<!-- TRIANGLE -->
	<symbol id="fa-triangle" viewBox="0 0 24 24">
		<path
			d="M12 4 L22 20 H2 Z"
			fill="none"
			stroke="currentColor"
			stroke-width="2"
			stroke-linejoin="round"
		/>
	</symbol>

	<!-- PARALLELOGRAM -->
	<symbol id="fa-parallelogram" viewBox="0 0 24 24">
		<path
			d="M6 4 H22 L18 20 H2 Z"
			fill="none"
			stroke="currentColor"
			stroke-width="2"
			stroke-linejoin="round"
		/>
	</symbol>

	<!-- TRAPEZOID -->
	<symbol id="fa-trapezoid" viewBox="0 0 24 24">
		<path
			d="M6 6 H18 L22 18 H2 Z"
			fill="none"
			stroke="currentColor"
			stroke-width="2"
			stroke-linejoin="round"
		/>
	</symbol>

	<!-- CIRCLE -->
	<symbol id="fa-circle" viewBox="0 0 24 24">
		<!-- outer circle -->
		<circle
			cx="12"
			cy="12"
			r="8"
			fill="none"
			stroke="currentColor"
			stroke-width="2"
		/>

		<!-- center point -->
		<circle cx="12" cy="12" r="1.5" fill="currentColor" />
	</symbol>

	<!-- THICKNESS -->
	<symbol id="fa-stroke-thin" viewBox="0 0 24 24">
		<circle cx="12" cy="12" r="2" fill="currentColor" />
	</symbol>
	<symbol id="fa-stroke-medium" viewBox="0 0 24 24">
		<circle
			cx="12"
			cy="12"
			r="4"
			fill="none"
			stroke="currentColor"
			stroke-width="2"
		/>
	</symbol>
	<symbol id="fa-stroke-thick" viewBox="0 0 24 24">
		<circle cx="12" cy="12" r="6" fill="currentColor" />
	</symbol>

	<!-- LAYERS -->
	<symbol id="fa-toplayer" viewBox="0 0 64 64">
		<path
			transform="translate(0,-4)"
			d="M58.38 21.701C58.3845 22.4886 58.1675 23.2616 57.7538 23.9318C57.34 24.6019 56.7461 25.1423 56.0399 25.491L34.27 36.371C33.6842 36.6676 33.0366 36.8218 32.38 36.821C31.7233 36.8218 31.0758 36.6676 30.49 36.371L8.71994 25.491C8.01597 25.1422 7.42371 24.6032 7.01016 23.9352C6.59662 23.2671 6.37835 22.4967 6.37998 21.711C6.37694 20.9238 6.59455 20.1514 7.00815 19.4815C7.42174 18.8116 8.01474 18.271 8.71994 17.921L30.49 7.04104C31.0765 6.74751 31.7241 6.59674 32.38 6.60104C33.0358 6.59674 33.6835 6.74751 34.27 7.04104L56.0399 17.921C56.7439 18.2699 57.3362 18.8089 57.7497 19.4769C58.1633 20.1449 58.3816 20.9154 58.38 21.701Z"
			fill="#000"
		/>
		<path
			d="M56.04 27.9509C56.7452 28.3009 57.3382 28.8415 57.7518 29.5114C58.1654 30.1813 58.383 30.9537 58.38 31.741C58.3816 32.5266 58.1633 33.2971 57.7498 33.9651C57.3362 34.6331 56.744 35.1721 56.04 35.521L34.27 46.4109C33.6818 46.6997 33.0353 46.8502 32.38 46.851C31.7247 46.8502 31.0782 46.6997 30.49 46.4109L8.71998 35.521C8.01722 35.1715 7.42642 34.6322 7.0146 33.964C6.60277 33.2959 6.38643 32.5258 6.39002 31.741C6.38547 30.9534 6.60242 30.1804 7.01618 29.5102C7.42995 28.84 8.02383 28.2997 8.72999 27.9509L8.95002 27.8409L13.42 30.0809L29.6 38.1609C30.4632 38.5928 31.4148 38.8187 32.38 38.821C33.3484 38.8187 34.3032 38.5928 35.17 38.1609L51.34 30.0809L55.82 27.8409L56.04 27.9509Z"
			fill="#777"
		/>
		<path
			transform="translate(0,+4)"
			d="M56.04 37.991C56.7439 38.3399 57.3362 38.8788 57.7497 39.5468C58.1633 40.2149 58.3816 40.9853 58.38 41.771C58.3816 42.5567 58.1633 43.3271 57.7497 43.9951C57.3362 44.6631 56.7439 45.2021 56.04 45.551L34.27 56.441C33.6842 56.7376 33.0366 56.8918 32.38 56.891C31.7234 56.8918 31.0758 56.7376 30.49 56.441L8.71996 45.551C8.0172 45.2015 7.4264 44.6622 7.01458 43.9941C6.60275 43.3259 6.38641 42.5558 6.39 41.771C6.3843 40.9857 6.59977 40.2147 7.01183 39.5462C7.42389 38.8777 8.01586 38.3387 8.71996 37.991L8.95 37.871L13.43 40.111L29.61 48.201C30.4708 48.6285 31.4189 48.851 32.38 48.851C33.3442 48.8499 34.2952 48.6275 35.16 48.201L51.35 40.111L55.81 37.871L56.04 37.991Z"
			fill="#777"
		/>
	</symbol>
	<symbol id="fa-midlayer" viewBox="0 0 64 64">
		<path
			transform="translate(0,-4)"
			d="M58.38 21.701C58.3845 22.4886 58.1675 23.2616 57.7538 23.9318C57.34 24.6019 56.7461 25.1423 56.0399 25.491L34.27 36.371C33.6842 36.6676 33.0366 36.8218 32.38 36.821C31.7233 36.8218 31.0758 36.6676 30.49 36.371L8.71994 25.491C8.01597 25.1422 7.42371 24.6032 7.01016 23.9352C6.59662 23.2671 6.37835 22.4967 6.37998 21.711C6.37694 20.9238 6.59455 20.1514 7.00815 19.4815C7.42174 18.8116 8.01474 18.271 8.71994 17.921L30.49 7.04104C31.0765 6.74751 31.7241 6.59674 32.38 6.60104C33.0358 6.59674 33.6835 6.74751 34.27 7.04104L56.0399 17.921C56.7439 18.2699 57.3362 18.8089 57.7497 19.4769C58.1633 20.1449 58.3816 20.9154 58.38 21.701Z"
			fill="#777"
		/>
		<path
			d="M56.04 27.9509C56.7452 28.3009 57.3382 28.8415 57.7518 29.5114C58.1654 30.1813 58.383 30.9537 58.38 31.741C58.3816 32.5266 58.1633 33.2971 57.7498 33.9651C57.3362 34.6331 56.744 35.1721 56.04 35.521L34.27 46.4109C33.6818 46.6997 33.0353 46.8502 32.38 46.851C31.7247 46.8502 31.0782 46.6997 30.49 46.4109L8.71998 35.521C8.01722 35.1715 7.42642 34.6322 7.0146 33.964C6.60277 33.2959 6.38643 32.5258 6.39002 31.741C6.38547 30.9534 6.60242 30.1804 7.01618 29.5102C7.42995 28.84 8.02383 28.2997 8.72999 27.9509L8.95002 27.8409L13.42 30.0809L29.6 38.1609C30.4632 38.5928 31.4148 38.8187 32.38 38.821C33.3484 38.8187 34.3032 38.5928 35.17 38.1609L51.34 30.0809L55.82 27.8409L56.04 27.9509Z"
			fill="#000"
		/>
		<path
			transform="translate(0,+4)"
			d="M56.04 37.991C56.7439 38.3399 57.3362 38.8788 57.7497 39.5468C58.1633 40.2149 58.3816 40.9853 58.38 41.771C58.3816 42.5567 58.1633 43.3271 57.7497 43.9951C57.3362 44.6631 56.7439 45.2021 56.04 45.551L34.27 56.441C33.6842 56.7376 33.0366 56.8918 32.38 56.891C31.7234 56.8918 31.0758 56.7376 30.49 56.441L8.71996 45.551C8.0172 45.2015 7.4264 44.6622 7.01458 43.9941C6.60275 43.3259 6.38641 42.5558 6.39 41.771C6.3843 40.9857 6.59977 40.2147 7.01183 39.5462C7.42389 38.8777 8.01586 38.3387 8.71996 37.991L8.95 37.871L13.43 40.111L29.61 48.201C30.4708 48.6285 31.4189 48.851 32.38 48.851C33.3442 48.8499 34.2952 48.6275 35.16 48.201L51.35 40.111L55.81 37.871L56.04 37.991Z"
			fill="#777"
		/>
	</symbol>
	<symbol id="fa-botlayer" viewBox="0 0 64 64">
		<path
			transform="translate(0,-4)"
			d="M58.38 21.701C58.3845 22.4886 58.1675 23.2616 57.7538 23.9318C57.34 24.6019 56.7461 25.1423 56.0399 25.491L34.27 36.371C33.6842 36.6676 33.0366 36.8218 32.38 36.821C31.7233 36.8218 31.0758 36.6676 30.49 36.371L8.71994 25.491C8.01597 25.1422 7.42371 24.6032 7.01016 23.9352C6.59662 23.2671 6.37835 22.4967 6.37998 21.711C6.37694 20.9238 6.59455 20.1514 7.00815 19.4815C7.42174 18.8116 8.01474 18.271 8.71994 17.921L30.49 7.04104C31.0765 6.74751 31.7241 6.59674 32.38 6.60104C33.0358 6.59674 33.6835 6.74751 34.27 7.04104L56.0399 17.921C56.7439 18.2699 57.3362 18.8089 57.7497 19.4769C58.1633 20.1449 58.3816 20.9154 58.38 21.701Z"
			fill="#777"
		/>
		<path
			d="M56.04 27.9509C56.7452 28.3009 57.3382 28.8415 57.7518 29.5114C58.1654 30.1813 58.383 30.9537 58.38 31.741C58.3816 32.5266 58.1633 33.2971 57.7498 33.9651C57.3362 34.6331 56.744 35.1721 56.04 35.521L34.27 46.4109C33.6818 46.6997 33.0353 46.8502 32.38 46.851C31.7247 46.8502 31.0782 46.6997 30.49 46.4109L8.71998 35.521C8.01722 35.1715 7.42642 34.6322 7.0146 33.964C6.60277 33.2959 6.38643 32.5258 6.39002 31.741C6.38547 30.9534 6.60242 30.1804 7.01618 29.5102C7.42995 28.84 8.02383 28.2997 8.72999 27.9509L8.95002 27.8409L13.42 30.0809L29.6 38.1609C30.4632 38.5928 31.4148 38.8187 32.38 38.821C33.3484 38.8187 34.3032 38.5928 35.17 38.1609L51.34 30.0809L55.82 27.8409L56.04 27.9509Z"
			fill="#777"
		/>
		<path
			transform="translate(0,+4)"
			d="M56.04 37.991C56.7439 38.3399 57.3362 38.8788 57.7497 39.5468C58.1633 40.2149 58.3816 40.9853 58.38 41.771C58.3816 42.5567 58.1633 43.3271 57.7497 43.9951C57.3362 44.6631 56.7439 45.2021 56.04 45.551L34.27 56.441C33.6842 56.7376 33.0366 56.8918 32.38 56.891C31.7234 56.8918 31.0758 56.7376 30.49 56.441L8.71996 45.551C8.0172 45.2015 7.4264 44.6622 7.01458 43.9941C6.60275 43.3259 6.38641 42.5558 6.39 41.771C6.3843 40.9857 6.59977 40.2147 7.01183 39.5462C7.42389 38.8777 8.01586 38.3387 8.71996 37.991L8.95 37.871L13.43 40.111L29.61 48.201C30.4708 48.6285 31.4189 48.851 32.38 48.851C33.3442 48.8499 34.2952 48.6275 35.16 48.201L51.35 40.111L55.81 37.871L56.04 37.991Z"
			fill="#000"
		/>
	</symbol>

	<!-- (IN)VISIBLE -->
	<symbol id="fa-visible" viewBox="0 0 640 640">
		<path
			d="M320 96C239.2 96 174.5 132.8 127.4 176.6C80.6 220.1 49.3 272 34.4 307.7C31.1 315.6 31.1 324.4 34.4 332.3C49.3 368 80.6 420 127.4 463.4C174.5 507.1 239.2 544 320 544C400.8 544 465.5 507.2 512.6 463.4C559.4 419.9 590.7 368 605.6 332.3C608.9 324.4 608.9 315.6 605.6 307.7C590.7 272 559.4 220 512.6 176.6C465.5 132.9 400.8 96 320 96zM176 320C176 240.5 240.5 176 320 176C399.5 176 464 240.5 464 320C464 399.5 399.5 464 320 464C240.5 464 176 399.5 176 320zM320 256C320 291.3 291.3 320 256 320C244.5 320 233.7 317 224.3 311.6C223.3 322.5 224.2 333.7 227.2 344.8C240.9 396 293.6 426.4 344.8 412.7C396 399 426.4 346.3 412.7 295.1C400.5 249.4 357.2 220.3 311.6 224.3C316.9 233.6 320 244.4 320 256z"
		/>
	</symbol>
	<symbol id="fa-invisible" viewBox="0 0 640 640">
		<path
			d="M73 39.1C63.6 29.7 48.4 29.7 39.1 39.1C29.8 48.5 29.7 63.7 39 73.1L567 601.1C576.4 610.5 591.6 610.5 600.9 601.1C610.2 591.7 610.3 576.5 600.9 567.2L504.5 470.8C507.2 468.4 509.9 466 512.5 463.6C559.3 420.1 590.6 368.2 605.5 332.5C608.8 324.6 608.8 315.8 605.5 307.9C590.6 272.2 559.3 220.2 512.5 176.8C465.4 133.1 400.7 96.2 319.9 96.2C263.1 96.2 214.3 114.4 173.9 140.4L73 39.1zM236.5 202.7C260 185.9 288.9 176 320 176C399.5 176 464 240.5 464 320C464 351.1 454.1 379.9 437.3 403.5L402.6 368.8C415.3 347.4 419.6 321.1 412.7 295.1C399 243.9 346.3 213.5 295.1 227.2C286.5 229.5 278.4 232.9 271.1 237.2L236.4 202.5zM357.3 459.1C345.4 462.3 332.9 464 320 464C240.5 464 176 399.5 176 320C176 307.1 177.7 294.6 180.9 282.7L101.4 203.2C68.8 240 46.4 279 34.5 307.7C31.2 315.6 31.2 324.4 34.5 332.3C49.4 368 80.7 420 127.5 463.4C174.6 507.1 239.3 544 320.1 544C357.4 544 391.3 536.1 421.6 523.4L357.4 459.2z"
		/>
	</symbol>

	<!-- TRASHBIN -->
	<symbol id="fa-trashbin" viewBox="0 0 640 640">
		<path
			d="M232.7 69.9L224 96L128 96C110.3 96 96 110.3 96 128C96 145.7 110.3 160 128 160L512 160C529.7 160 544 145.7 544 128C544 110.3 529.7 96 512 96L416 96L407.3 69.9C402.9 56.8 390.7 48 376.9 48L263.1 48C249.3 48 237.1 56.8 232.7 69.9zM512 208L128 208L149.1 531.1C150.7 556.4 171.7 576 197 576L443 576C468.3 576 489.3 556.4 490.9 531.1L512 208z"
		/>
	</symbol>

	<!-- PREVIEW -->
	<g id="preview" display="inline" transform="translate(0,0)">
		<use href="#fa-pencil" x="0" y="0" width="64" height="64" />
		<use href="#fa-eraser" x="70" y="0" width="64" height="64" />
		<use href="#fa-line" x="140" y="0" width="64" height="64" />
		<use href="#fa-polyline" x="210" y="0" width="64" height="64" />
		<use href="#fa-midlayer" x="280" y="0" width="64" height="64" />
	</g>
</svg>